<svg width="182" height="35" viewBox="0 0 182 35" fill="none" xmlns="http://www.w3.org/2000/svg">
<rect width="182" height="35" rx="6" fill="white"/>
<rect width="182" height="35" rx="6" fill="#2787F5"/>
<path d="M55.7646 19.9561C55.7646 19.7145 55.6439 19.5254 55.4023 19.3887C55.1654 19.2474 54.7826 19.1221 54.2539 19.0127C52.4948 18.6436 51.6152 17.8962 51.6152 16.7705C51.6152 16.1143 51.8864 15.5674 52.4287 15.1299C52.9756 14.6878 53.6888 14.4668 54.5684 14.4668C55.5072 14.4668 56.2568 14.6878 56.8174 15.1299C57.3825 15.5719 57.665 16.1462 57.665 16.8525H55.6895C55.6895 16.57 55.5983 16.3376 55.416 16.1553C55.2337 15.9684 54.9489 15.875 54.5615 15.875C54.2288 15.875 53.9714 15.9502 53.7891 16.1006C53.6068 16.251 53.5156 16.4424 53.5156 16.6748C53.5156 16.8936 53.6182 17.0713 53.8232 17.208C54.0329 17.3402 54.3838 17.4564 54.876 17.5566C55.3682 17.6523 55.7829 17.7617 56.1201 17.8848C57.1637 18.2676 57.6855 18.9307 57.6855 19.874C57.6855 20.5485 57.3962 21.0954 56.8174 21.5146C56.2386 21.9294 55.4912 22.1367 54.5752 22.1367C53.9554 22.1367 53.404 22.0273 52.9209 21.8086C52.4424 21.5853 52.0664 21.2822 51.793 20.8994C51.5195 20.512 51.3828 20.0951 51.3828 19.6484H53.2559C53.2741 19.9993 53.404 20.2682 53.6455 20.4551C53.887 20.6419 54.2106 20.7354 54.6162 20.7354C54.9945 20.7354 55.2793 20.6647 55.4707 20.5234C55.6667 20.3776 55.7646 20.1885 55.7646 19.9561ZM59.0763 18.2334C59.0763 17.4997 59.2175 16.8457 59.5001 16.2715C59.7826 15.6973 60.1882 15.2529 60.7169 14.9385C61.2501 14.624 61.8676 14.4668 62.5694 14.4668C63.5675 14.4668 64.3809 14.7721 65.0098 15.3828C65.6433 15.9935 65.9965 16.8229 66.0694 17.8711L66.0831 18.377C66.0831 19.5117 65.7664 20.4232 65.1329 21.1113C64.4994 21.7949 63.6495 22.1367 62.5831 22.1367C61.5167 22.1367 60.6645 21.7949 60.0264 21.1113C59.393 20.4277 59.0763 19.498 59.0763 18.3223V18.2334ZM61.0518 18.377C61.0518 19.0788 61.184 19.6165 61.4483 19.9902C61.7126 20.3594 62.0909 20.5439 62.5831 20.5439C63.0616 20.5439 63.4353 20.3617 63.7042 19.9971C63.9731 19.6279 64.1075 19.04 64.1075 18.2334C64.1075 17.5452 63.9731 17.012 63.7042 16.6338C63.4353 16.2555 63.057 16.0664 62.5694 16.0664C62.0863 16.0664 61.7126 16.2555 61.4483 16.6338C61.184 17.0075 61.0518 17.5885 61.0518 18.377ZM70.4064 19.0332L69.6955 19.7441V22H67.7199V11.5H69.6955V17.3174L70.0783 16.8252L71.9718 14.6035H74.3439L71.6711 17.6865L74.5763 22H72.3068L70.4064 19.0332ZM75.3108 18.2334C75.3108 17.4997 75.4521 16.8457 75.7346 16.2715C76.0172 15.6973 76.4228 15.2529 76.9514 14.9385C77.4846 14.624 78.1021 14.4668 78.8039 14.4668C79.802 14.4668 80.6155 14.7721 81.2444 15.3828C81.8778 15.9935 82.231 16.8229 82.3039 17.8711L82.3176 18.377C82.3176 19.5117 82.0009 20.4232 81.3674 21.1113C80.734 21.7949 79.884 22.1367 78.8176 22.1367C77.7512 22.1367 76.899 21.7949 76.261 21.1113C75.6275 20.4277 75.3108 19.498 75.3108 18.3223V18.2334ZM77.2864 18.377C77.2864 19.0788 77.4185 19.6165 77.6829 19.9902C77.9472 20.3594 78.3254 20.5439 78.8176 20.5439C79.2961 20.5439 79.6698 20.3617 79.9387 19.9971C80.2076 19.6279 80.342 19.04 80.342 18.2334C80.342 17.5452 80.2076 17.012 79.9387 16.6338C79.6698 16.2555 79.2916 16.0664 78.8039 16.0664C78.3209 16.0664 77.9472 16.2555 77.6829 16.6338C77.4185 17.0075 77.2864 17.5885 77.2864 18.377ZM86.0394 22H84.057V11.5H86.0394V22ZM87.7855 18.2334C87.7855 17.4997 87.9268 16.8457 88.2094 16.2715C88.4919 15.6973 88.8975 15.2529 89.4262 14.9385C89.9594 14.624 90.5769 14.4668 91.2787 14.4668C92.2768 14.4668 93.0902 14.7721 93.7191 15.3828C94.3526 15.9935 94.7058 16.8229 94.7787 17.8711L94.7924 18.377C94.7924 19.5117 94.4756 20.4232 93.8422 21.1113C93.2087 21.7949 92.3588 22.1367 91.2924 22.1367C90.226 22.1367 89.3738 21.7949 88.7357 21.1113C88.1023 20.4277 87.7855 19.498 87.7855 18.3223V18.2334ZM89.7611 18.377C89.7611 19.0788 89.8933 19.6165 90.1576 19.9902C90.4219 20.3594 90.8002 20.5439 91.2924 20.5439C91.7709 20.5439 92.1446 20.3617 92.4135 19.9971C92.6824 19.6279 92.8168 19.04 92.8168 18.2334C92.8168 17.5452 92.6824 17.012 92.4135 16.6338C92.1446 16.2555 91.7663 16.0664 91.2787 16.0664C90.7956 16.0664 90.4219 16.2555 90.1576 16.6338C89.8933 17.0075 89.7611 17.5885 89.7611 18.377ZM99.0884 19.5869L100.462 14.6035H102.527L100.032 22H98.145L95.6499 14.6035H97.7143L99.0884 19.5869ZM107.828 19.9561C107.828 19.7145 107.707 19.5254 107.465 19.3887C107.228 19.2474 106.846 19.1221 106.317 19.0127C104.558 18.6436 103.678 17.8962 103.678 16.7705C103.678 16.1143 103.949 15.5674 104.492 15.1299C105.039 14.6878 105.752 14.4668 106.631 14.4668C107.57 14.4668 108.32 14.6878 108.88 15.1299C109.446 15.5719 109.728 16.1462 109.728 16.8525H107.752C107.752 16.57 107.661 16.3376 107.479 16.1553C107.297 15.9684 107.012 15.875 106.625 15.875C106.292 15.875 106.034 15.9502 105.852 16.1006C105.67 16.251 105.579 16.4424 105.579 16.6748C105.579 16.8936 105.681 17.0713 105.886 17.208C106.096 17.3402 106.447 17.4564 106.939 17.5566C107.431 17.6523 107.846 17.7617 108.183 17.8848C109.227 18.2676 109.749 18.9307 109.749 19.874C109.749 20.5485 109.459 21.0954 108.88 21.5146C108.302 21.9294 107.554 22.1367 106.638 22.1367C106.018 22.1367 105.467 22.0273 104.984 21.8086C104.505 21.5853 104.129 21.2822 103.856 20.8994C103.583 20.512 103.446 20.0951 103.446 19.6484H105.319C105.337 19.9993 105.467 20.2682 105.709 20.4551C105.95 20.6419 106.274 20.7354 106.679 20.7354C107.058 20.7354 107.342 20.6647 107.534 20.5234C107.73 20.3776 107.828 20.1885 107.828 19.9561ZM114.133 19.0332L113.423 19.7441V22H111.447V11.5H113.423V17.3174L113.805 16.8252L115.699 14.6035H118.071L115.398 17.6865L118.303 22H116.034L114.133 19.0332ZM122.107 19.2041L123.474 14.6035H125.593L122.62 23.1484L122.456 23.5381C122.014 24.5042 121.285 24.9873 120.268 24.9873C119.981 24.9873 119.69 24.944 119.393 24.8574V23.3604L119.694 23.3672C120.068 23.3672 120.346 23.3102 120.528 23.1963C120.715 23.0824 120.861 22.8932 120.966 22.6289L121.198 22.0205L118.607 14.6035H120.733L122.107 19.2041ZM125.747 21.0293C125.747 20.7148 125.852 20.4596 126.061 20.2637C126.276 20.0677 126.542 19.9697 126.861 19.9697C127.185 19.9697 127.451 20.0677 127.661 20.2637C127.875 20.4596 127.982 20.7148 127.982 21.0293C127.982 21.3392 127.877 21.5921 127.668 21.7881C127.458 21.9795 127.189 22.0752 126.861 22.0752C126.538 22.0752 126.271 21.9795 126.061 21.7881C125.852 21.5921 125.747 21.3392 125.747 21.0293ZM134.425 22C134.334 21.8223 134.267 21.6012 134.226 21.3369C133.748 21.8701 133.126 22.1367 132.36 22.1367C131.636 22.1367 131.034 21.9271 130.556 21.5078C130.082 21.0885 129.845 20.5599 129.845 19.9219C129.845 19.138 130.134 18.5365 130.713 18.1172C131.296 17.6979 132.137 17.486 133.235 17.4814H134.144V17.0576C134.144 16.7158 134.056 16.4424 133.878 16.2373C133.705 16.0322 133.429 15.9297 133.051 15.9297C132.718 15.9297 132.456 16.0094 132.265 16.1689C132.078 16.3285 131.984 16.5472 131.984 16.8252H130.009C130.009 16.3968 130.141 16.0003 130.405 15.6357C130.669 15.2712 131.043 14.9863 131.526 14.7812C132.009 14.5716 132.552 14.4668 133.153 14.4668C134.065 14.4668 134.787 14.6969 135.32 15.1572C135.858 15.613 136.127 16.2555 136.127 17.085V20.291C136.131 20.9928 136.229 21.5238 136.421 21.8838V22H134.425ZM132.791 20.626C133.083 20.626 133.351 20.5622 133.598 20.4346C133.844 20.3024 134.026 20.127 134.144 19.9082V18.6367H133.406C132.417 18.6367 131.891 18.9785 131.827 19.6621L131.82 19.7783C131.82 20.0244 131.907 20.2272 132.08 20.3867C132.253 20.5462 132.49 20.626 132.791 20.626ZM142.221 16.4561C141.952 16.4196 141.715 16.4014 141.51 16.4014C140.762 16.4014 140.272 16.6543 140.04 17.1602V22H138.064V14.6035H139.931L139.985 15.4854C140.382 14.8063 140.931 14.4668 141.633 14.4668C141.852 14.4668 142.057 14.4964 142.248 14.5557L142.221 16.4561ZM146.305 12.7852V14.6035H147.569V16.0527H146.305V19.7441C146.305 20.0176 146.357 20.2135 146.462 20.332C146.567 20.4505 146.767 20.5098 147.064 20.5098C147.282 20.5098 147.476 20.4938 147.645 20.4619V21.959C147.257 22.0775 146.858 22.1367 146.448 22.1367C145.063 22.1367 144.356 21.4372 144.329 20.0381V16.0527H143.249V14.6035H144.329V12.7852H146.305ZM152.494 22.1367C151.41 22.1367 150.526 21.804 149.842 21.1387C149.163 20.4733 148.823 19.5869 148.823 18.4795V18.2881C148.823 17.5452 148.967 16.8822 149.254 16.2988C149.541 15.7109 149.947 15.2598 150.471 14.9453C150.999 14.6263 151.601 14.4668 152.276 14.4668C153.287 14.4668 154.082 14.7858 154.661 15.4238C155.245 16.0618 155.536 16.9665 155.536 18.1377V18.9443H150.826C150.89 19.4274 151.081 19.8148 151.401 20.1064C151.724 20.3981 152.132 20.5439 152.624 20.5439C153.385 20.5439 153.98 20.2682 154.408 19.7168L155.379 20.8037C155.083 21.223 154.682 21.5511 154.176 21.7881C153.67 22.0205 153.109 22.1367 152.494 22.1367ZM152.269 16.0664C151.877 16.0664 151.558 16.1986 151.312 16.4629C151.07 16.7272 150.915 17.1055 150.847 17.5977H153.595V17.4404C153.586 17.0029 153.467 16.6657 153.239 16.4287C153.012 16.1872 152.688 16.0664 152.269 16.0664ZM158.937 14.6035L158.998 15.4307C159.522 14.7881 160.231 14.4668 161.124 14.4668C162.077 14.4668 162.731 14.8428 163.086 15.5947C163.606 14.8428 164.346 14.4668 165.308 14.4668C166.11 14.4668 166.707 14.7015 167.099 15.1709C167.491 15.6357 167.687 16.3376 167.687 17.2764V22H165.704V17.2832C165.704 16.8639 165.622 16.5586 165.458 16.3672C165.294 16.1712 165.005 16.0732 164.59 16.0732C163.998 16.0732 163.587 16.3558 163.36 16.9209L163.366 22H161.391V17.29C161.391 16.8617 161.307 16.5518 161.138 16.3604C160.969 16.1689 160.682 16.0732 160.277 16.0732C159.716 16.0732 159.31 16.3057 159.06 16.7705V22H157.084V14.6035H158.937Z" fill="white"/>
<path d="M19.4165 8H13.5835C8.26033 8 7 9.26033 7 14.5835V20.4165C7 25.7397 8.26033 27 13.5835 27H19.4165C24.7397 27 26 25.7397 26 20.4165V14.5835C26 9.26033 24.7262 8 19.4165 8ZM22.3393 21.5557H20.9587C20.4362 21.5557 20.2747 21.1401 19.3358 20.1885C18.518 19.3968 18.1562 19.29 17.9551 19.29C17.6733 19.29 17.5925 19.3707 17.5925 19.7594V21.0063C17.5925 21.342 17.4856 21.543 16.6005 21.543C15.1391 21.543 13.5162 20.658 12.377 19.0081C10.6607 16.5951 10.1904 14.7846 10.1904 14.4093C10.1904 14.2082 10.2712 14.0206 10.6599 14.0206H12.0405C12.3889 14.0206 12.5235 14.1813 12.658 14.5566C13.3413 16.5278 14.4813 18.2576 14.9507 18.2576C15.1249 18.2576 15.2056 18.1769 15.2056 17.7351V15.6958C15.1518 14.7569 14.6554 14.6769 14.6554 14.342C14.6554 14.1805 14.79 14.0198 15.0037 14.0198H17.1761C17.4714 14.0198 17.5783 14.1805 17.5783 14.5289V17.2783C17.5783 17.5728 17.7128 17.6805 17.7928 17.6805C17.967 17.6805 18.115 17.5728 18.4364 17.2514C19.4292 16.1383 20.1393 14.422 20.1393 14.422C20.2335 14.2209 20.3942 14.0333 20.7433 14.0333H22.124C22.5396 14.0333 22.6338 14.247 22.5396 14.5423C22.3655 15.3475 20.676 17.7335 20.676 17.7335C20.5288 17.975 20.475 18.0819 20.676 18.351C20.8233 18.5521 21.3062 18.9678 21.6284 19.343C22.2182 20.0135 22.6734 20.5764 22.7945 20.9659C22.9291 21.3538 22.7273 21.5549 22.3385 21.5549L22.3393 21.5557Z" fill="white"/>
<path d="M49.0039 17.2402C48.9583 18.4297 48.6621 19.3776 48.1152 20.084C47.5684 20.7904 46.8392 21.1436 45.9277 21.1436C45.554 21.1436 45.2236 21.0638 44.9365 20.9043C44.6494 20.7402 44.4261 20.5101 44.2666 20.2139C43.82 20.8154 43.2207 21.1162 42.4688 21.1162C42.0312 21.1162 41.6484 20.9886 41.3203 20.7334C40.9922 20.4736 40.7507 20.1068 40.5957 19.6328C40.4453 19.1589 40.3997 18.6211 40.459 18.0195C40.5957 16.8802 40.9626 15.9642 41.5596 15.2715C42.1566 14.5788 42.888 14.2324 43.7539 14.2324C44.4238 14.2324 45.0003 14.3874 45.4834 14.6973L45.9141 14.9844L45.5654 18.9971C45.488 19.6305 45.7067 19.9473 46.2217 19.9473C46.609 19.9473 46.9326 19.7012 47.1924 19.209C47.4567 18.7122 47.6025 18.0788 47.6299 17.3086C47.7074 15.7865 47.3906 14.6107 46.6797 13.7812C45.9733 12.9518 44.9365 12.5371 43.5693 12.5371C42.6989 12.5371 41.9242 12.7604 41.2451 13.207C40.5706 13.6491 40.0352 14.278 39.6387 15.0938C39.2467 15.9049 39.0257 16.8301 38.9756 17.8691C38.9027 19.4642 39.2217 20.6833 39.9326 21.5264C40.6436 22.374 41.71 22.7979 43.1318 22.7979C43.5146 22.7979 43.9202 22.7523 44.3486 22.6611C44.777 22.5745 45.1257 22.472 45.3945 22.3535L45.6475 23.4883C45.3695 23.6706 44.9935 23.8164 44.5195 23.9258C44.0501 24.0397 43.5785 24.0967 43.1045 24.0967C41.8604 24.0967 40.8076 23.8574 39.9463 23.3789C39.0895 22.9049 38.4515 22.2008 38.0322 21.2666C37.613 20.3324 37.4261 19.1999 37.4717 17.8691C37.5264 16.6113 37.8158 15.4857 38.3398 14.4922C38.8685 13.4941 39.5885 12.724 40.5 12.1816C41.416 11.6348 42.4482 11.3613 43.5967 11.3613C44.7451 11.3613 45.7363 11.6006 46.5703 12.0791C47.4043 12.5531 48.0309 13.2367 48.4502 14.1299C48.8695 15.0231 49.054 16.0599 49.0039 17.2402ZM42.168 18.0195C42.1178 18.612 42.1634 19.0609 42.3047 19.3662C42.4505 19.667 42.6829 19.8174 43.002 19.8174C43.2161 19.8174 43.4121 19.7217 43.5898 19.5303C43.7721 19.3389 43.9225 19.0654 44.041 18.71L44.3145 15.5928C44.1777 15.5563 44.0365 15.5381 43.8906 15.5381C43.3802 15.5381 42.986 15.7386 42.708 16.1396C42.4346 16.5361 42.2546 17.1628 42.168 18.0195Z" fill="white"/>
</svg>
